# Blender v2.79 (sub 0) OBJ File: ''
# www.blender.org
o Cube
v -0.060442 0.839452 -0.112538
v 0.415089 1.072645 -1.097015
v -0.219362 -0.161835 -0.138404
v -0.219362 0.226991 -1.119160
v 0.651760 1.266273 0.009297
v 1.780638 0.706520 -0.301676
v 1.062634 -0.174253 0.335787
v 1.780638 -0.135904 -1.128662
vt 0.090947 0.874134
vt 0.279883 0.855655
vt 0.192916 0.999920
vt 0.456704 0.000080
vt 0.390308 0.309208
vt 0.322419 0.101782
vt 0.263892 0.474426
vt 0.145567 0.304309
vt 0.000080 0.192869
vt 0.177592 0.174202
vt 0.428113 0.566935
vt 0.180069 0.719486
vt 0.646699 0.263203
vt 0.000080 0.451869
vn -0.9860 0.1549 0.0614
vn 0.1263 -0.9222 -0.3656
vn 0.3916 0.3082 0.8670
vn -0.5083 0.8601 -0.0418
vn -0.3465 0.0308 0.9375
vn 0.5167 0.5998 -0.6110
vn -0.7745 0.5872 -0.2350
vn -0.1779 -0.9776 -0.1128
vn 0.8308 -0.3899 0.3971
vn 0.3782 0.8947 -0.2375
vn -0.2508 0.1454 0.9571
vn 0.0000 0.0262 -0.9997
s off
f 1/1/1 4/2/1 3/3/1
f 4/4/2 7/5/2 3/6/2
f 7/5/3 6/7/3 5/8/3
f 5/8/4 2/9/4 1/10/4
f 7/5/5 1/10/5 3/6/5
f 8/11/6 2/12/6 6/7/6
f 1/1/7 2/12/7 4/2/7
f 4/4/8 8/13/8 7/5/8
f 7/5/9 8/11/9 6/7/9
f 5/8/10 6/14/10 2/9/10
f 7/5/11 5/8/11 1/10/11
f 8/11/12 4/2/12 2/12/12
