# Blender v2.79 (sub 0) OBJ File: ''
# www.blender.org
o Icosphere
v 0.000000 -0.036564 -0.184237
v 0.724166 -0.145833 0.394348
v -0.276388 -0.184000 0.637987
v -0.884061 -0.077666 0.000974
v -0.308479 -0.030429 -0.689241
v 0.763612 -0.050729 -0.398052
v 0.276388 0.710440 0.637987
v -0.723607 0.710440 0.394294
v -0.789544 0.698794 -0.400471
v 0.276388 0.710440 -0.637987
v 0.894426 0.710436 0.000000
v 0.000000 1.008461 -0.075584
v -0.122744 -0.197133 0.378804
v 0.423779 -0.136168 0.202305
v 0.262869 -0.262518 0.606759
v 0.836259 -0.114911 0.001352
v 0.416776 -0.188709 -0.241389
v -0.484072 -0.061578 0.043532
v -0.689205 -0.193073 0.375095
v -0.233915 -0.103113 -0.379875
v -0.685574 -0.135145 -0.378225
v 0.279225 -0.026628 -0.629606
v 0.951058 0.263220 0.231759
v 1.074870 0.265059 -0.243357
v 0.000000 0.263220 0.750000
v 0.587786 0.263220 0.606763
v -0.951058 0.263220 0.231759
v -0.587786 0.263220 0.606763
v -0.665350 0.253967 -0.614028
v -1.074870 0.265059 -0.243357
v 0.665350 0.253967 -0.614028
v 0.000000 0.157161 -0.740432
v 0.688189 0.788956 0.374998
v -0.262869 0.788958 0.606759
v -0.850648 0.788956 0.000000
v -0.262869 0.788958 -0.606759
v 0.804520 0.768411 -0.385896
v 0.128802 0.981483 0.371028
v 0.537194 0.919608 0.026856
v -0.444817 1.013289 0.235751
v -0.397258 0.972801 -0.234393
v 0.184457 0.968958 -0.377062
vt 0.174384 0.193342
vt 0.314641 0.272070
vt 0.214590 0.374015
vt 0.404009 0.302089
vt 0.382314 0.175954
vt 0.094014 0.303776
vt 0.099816 0.158551
vt 0.261061 0.143986
vt 0.420760 0.731339
vt 0.404009 0.604612
vt 0.486064 0.660710
vt 0.773017 0.249434
vt 0.760148 0.120767
vt 0.888044 0.194035
vt 0.861257 0.620658
vt 0.787450 0.513220
vt 0.920286 0.526889
vt 0.250521 0.726941
vt 0.249475 0.830304
vt 0.175862 0.809882
vt 0.318667 0.063356
vt 0.183722 0.037630
vt 0.269479 0.000000
vt 0.530584 0.785907
vt 0.872105 0.322717
vt 0.970382 0.670425
vt 0.213193 0.648959
vt 0.410253 0.478518
vt 0.478467 0.401729
vt 0.458948 0.509040
vt 0.657440 0.785907
vt 0.630121 0.691970
vt 0.720626 0.695383
vt 0.675625 0.237598
vt 0.627316 0.345672
vt 0.565283 0.233941
vt 0.580466 0.004382
vt 0.627316 0.117165
vt 0.502675 0.102506
vt 0.079538 0.578981
vt 0.054336 0.706537
vt 0.000000 0.607148
vt 0.581697 0.572910
vt 0.588529 0.451639
vt 0.659630 0.581167
vt 0.417588 0.262777
vt 0.404009 0.116771
vt 0.463127 0.187147
vt 0.686474 0.460041
vt 0.052716 0.463309
vt 0.465154 0.000000
vt 0.509556 0.325219
vt 0.570246 0.401729
vt 0.187472 0.495160
vt 0.056049 0.840831
vt 0.713430 0.000488
vt 0.760148 0.147461
vt 0.760148 0.288688
vt 1.000000 0.249329
vt 0.990606 0.124581
vt 0.888044 0.047380
vt 1.000000 0.012036
vt 0.250521 0.590285
vt 0.143334 0.921488
vt 0.946525 0.761113
vt 0.853977 0.727185
vt 0.849323 0.401729
vt 0.970382 0.430724
vt 0.720626 0.417696
vt 0.781993 0.000000
vt 0.404009 0.072179
vt 0.046314 0.072302
vt 0.000000 0.199959
vt 0.000347 0.327180
vt 0.088445 0.422992
vt 0.211001 0.463309
vt 0.327452 0.408611
vn 0.0201 -0.9626 -0.2701
vn 0.0153 -0.9971 -0.0741
vn -0.0876 -0.9528 -0.2908
vn 0.1322 -0.9759 0.1739
vn -0.2219 -0.8111 0.5412
vn 0.8875 -0.4043 0.2213
vn 0.0190 -0.2540 0.9670
vn -0.8602 -0.3908 0.3275
vn -0.5006 -0.4295 -0.7516
vn 0.3650 -0.4572 -0.8110
vn 0.7130 -0.1209 0.6907
vn -0.2357 -0.0966 0.9670
vn -0.9108 -0.3388 0.2360
vn -0.1821 0.0313 -0.9828
vn 0.6463 -0.2915 -0.7053
vn 0.2521 0.7453 0.6173
vn -0.3980 0.6855 0.6097
vn -0.4758 0.8397 -0.2617
vn 0.0649 0.7202 -0.6907
vn 0.5059 0.8625 0.0117
vn 0.1680 0.9854 -0.0263
vn 0.3024 0.9415 -0.1490
vn 0.2271 0.7306 -0.6439
vn -0.0297 0.9886 -0.1477
vn -0.1099 0.8749 -0.4716
vn -0.3358 0.7909 -0.5117
vn -0.0529 0.9944 -0.0910
vn -0.4258 0.8968 -0.1203
vn -0.5979 0.7271 0.3374
vn 0.0441 0.9979 0.0476
vn -0.0822 0.8345 0.5449
vn 0.0644 0.7178 0.6932
vn 0.1607 0.9869 0.0133
vn 0.3169 0.9250 0.2097
vn 0.5083 0.8553 0.1005
vn 0.8883 0.4371 -0.1413
vn 0.6616 0.1471 -0.7353
vn 0.3874 0.2841 -0.8770
vn -0.0283 0.1956 -0.9803
vn -0.1655 0.1378 -0.9765
vn -0.3922 0.3068 -0.8672
vn -0.8489 0.4729 -0.2360
vn -0.9275 0.2842 0.2428
vn -0.8807 0.3215 0.3478
vn -0.4408 0.2724 0.8553
vn -0.2343 0.1448 0.9613
vn -0.0190 0.2540 0.9670
vn 0.4795 0.2757 0.8331
vn 0.7081 0.1672 0.6860
vn 0.8572 0.3183 0.4048
vn 0.1724 0.0954 -0.9804
vn 0.2151 -0.2435 -0.9457
vn 0.0949 -0.4043 -0.9097
vn -0.6590 0.1680 -0.7331
vn -0.6264 -0.3799 -0.6807
vn -0.7330 -0.6151 -0.2904
vn -0.7138 0.1117 0.6914
vn -0.7052 -0.1901 0.6831
vn -0.5082 -0.2974 0.8083
vn 0.2357 0.0966 0.9670
vn 0.2343 -0.1448 0.9613
vn 0.4594 -0.2839 0.8417
vn 0.9377 0.2459 0.2453
vn 0.8840 -0.4078 0.2288
vn 0.7474 -0.6212 -0.2358
vn 0.1604 -0.8894 -0.4281
vn -0.0428 -0.9273 -0.3720
vn 0.0302 -0.9714 -0.2355
vn 0.0677 -0.9675 -0.2436
vn 0.0706 -0.9878 0.1386
vn 0.0225 -0.9866 0.1613
vn 0.0728 -0.9417 -0.3284
vn -0.0042 -0.9287 -0.3709
vn -0.0075 -0.9989 0.0462
vn 0.2819 -0.9379 -0.2020
vn 0.1070 -0.9876 0.1153
vn -0.3265 -0.9380 0.1162
vn -0.1461 -0.9886 -0.0365
vn 0.0117 -0.9558 -0.2939
vn 0.1282 -0.9600 -0.2489
s off
f 1/1/1 14/2/1 13/3/1
f 2/4/2 14/2/2 16/5/2
f 1/1/3 13/3/3 18/6/3
f 1/1/4 18/6/4 20/7/4
f 1/1/5 20/7/5 17/8/5
f 2/9/6 16/10/6 23/11/6
f 3/12/7 15/13/7 25/14/7
f 4/15/8 19/16/8 27/17/8
f 5/18/9 21/19/9 29/20/9
f 6/21/10 22/22/10 31/23/10
f 2/9/11 23/11/11 26/24/11
f 3/12/12 25/14/12 28/25/12
f 4/15/13 27/17/13 30/26/13
f 5/18/14 29/20/14 32/27/14
f 6/28/15 31/29/15 24/30/15
f 7/31/16 33/32/16 38/33/16
f 8/34/17 34/35/17 40/36/17
f 9/37/18 35/38/18 41/39/18
f 10/40/19 36/41/19 42/42/19
f 11/43/20 37/44/20 39/45/20
f 39/46/21 42/47/21 12/48/21
f 39/45/22 37/44/22 42/49/22
f 37/50/23 10/40/23 42/42/23
f 42/47/24 41/39/24 12/48/24
f 42/47/25 36/51/25 41/39/25
f 36/51/26 9/37/26 41/39/26
f 41/39/27 40/36/27 12/48/27
f 41/39/28 35/38/28 40/36/28
f 35/38/29 8/34/29 40/36/29
f 40/36/30 38/52/30 12/48/30
f 40/36/31 34/35/31 38/52/31
f 34/35/32 7/53/32 38/52/32
f 38/52/33 39/46/33 12/48/33
f 38/33/34 33/32/34 39/45/34
f 33/32/35 11/43/35 39/45/35
f 24/30/36 37/44/36 11/43/36
f 24/30/37 31/29/37 37/44/37
f 31/54/38 10/40/38 37/50/38
f 32/27/39 36/41/39 10/40/39
f 32/27/40 29/20/40 36/41/40
f 29/20/41 9/55/41 36/41/41
f 30/56/42 35/38/42 9/37/42
f 30/56/43 27/57/43 35/38/43
f 27/57/44 8/34/44 35/38/44
f 28/58/45 34/35/45 8/34/45
f 28/25/46 25/14/46 34/59/46
f 25/14/47 7/60/47 34/59/47
f 26/61/48 33/62/48 7/60/48
f 26/24/49 23/11/49 33/32/49
f 23/11/50 11/43/50 33/32/50
f 31/54/51 32/27/51 10/40/51
f 31/54/52 22/63/52 32/27/52
f 22/63/53 5/18/53 32/27/53
f 29/20/54 30/64/54 9/55/54
f 29/65/55 21/66/55 30/26/55
f 21/66/56 4/15/56 30/26/56
f 27/17/57 28/67/57 8/68/57
f 27/17/58 19/16/58 28/67/58
f 19/16/59 3/69/59 28/67/59
f 25/14/60 26/61/60 7/60/60
f 25/14/61 15/13/61 26/61/61
f 15/13/62 2/70/62 26/61/62
f 23/11/63 24/30/63 11/43/63
f 23/11/64 16/10/64 24/30/64
f 16/5/65 6/21/65 24/71/65
f 17/8/66 22/22/66 6/21/66
f 17/8/67 20/7/67 22/22/67
f 20/7/68 5/72/68 22/22/68
f 20/7/69 21/73/69 5/72/69
f 20/7/70 18/6/70 21/73/70
f 18/6/71 4/74/71 21/73/71
f 18/6/72 19/75/72 4/74/72
f 18/6/73 13/3/73 19/75/73
f 13/3/74 3/76/74 19/75/74
f 16/5/75 17/8/75 6/21/75
f 16/5/76 14/2/76 17/8/76
f 14/2/77 1/1/77 17/8/77
f 13/3/78 15/77/78 3/76/78
f 13/3/79 14/2/79 15/77/79
f 14/2/80 2/4/80 15/77/80
