# Blender v2.79 (sub 0) OBJ File: ''
# www.blender.org
o Cube
v 0.249543 -0.036312 -0.089329
v 0.124331 1.963688 -0.315106
v 0.349347 -0.112024 -0.719655
v 0.124331 2.527109 -0.682620
v 0.725745 -0.036312 -0.056342
v 0.883449 1.963688 -0.267996
v 1.164819 -0.036312 -1.000000
v 0.771553 1.963688 -1.000000
v -0.060442 1.747113 -0.170380
v 0.415089 2.737357 0.036963
v -0.219362 1.746759 -1.172001
v -0.219362 2.737357 -0.808982
v 0.651760 1.636493 0.259485
v 1.780638 1.932706 -0.308217
v 1.062634 1.272406 -1.172001
v 1.780638 2.737357 -1.172001
vt 0.074370 0.474618
vt 0.168033 0.234970
vt 0.227691 0.284833
vt 0.776665 0.509335
vt 0.531198 0.428265
vt 0.776665 0.404606
vt 0.190791 0.132744
vt 0.444657 0.077029
vt 0.260725 0.237462
vt 0.417606 0.437993
vt 0.470300 0.362554
vt 0.095437 0.578758
vt 0.109439 0.721923
vt 0.000124 0.656025
vt 0.757746 0.855908
vt 0.523507 0.805598
vt 0.680683 0.754155
vt 0.398314 0.709806
vt 0.527219 0.620147
vt 0.611662 0.509905
vt 0.625807 0.644413
vt 0.328215 0.834244
vt 0.212621 0.646290
vt 0.000124 0.507951
vt 0.456179 0.509657
vt 0.398700 0.000124
vt 0.558367 0.999876
vt 0.415406 0.509905
vn -0.9861 -0.0783 -0.1467
vn -0.3192 -0.0628 -0.9456
vn 0.9063 -0.0268 0.4217
vn -0.0687 0.1077 0.9918
vn -0.0082 -0.9930 0.1180
vn 0.0000 1.0000 0.0000
vn -0.9860 -0.0573 0.1565
vn 0.1263 0.3413 -0.9314
vn 0.3916 -0.8586 0.3308
vn -0.5083 0.0643 0.8588
vn -0.3465 -0.9364 0.0553
vn 0.5167 0.6265 0.5836
vn -0.9885 -0.0825 -0.1265
vn -0.4587 -0.0266 -0.8882
vn 0.9704 0.1908 -0.1483
vn -0.0616 0.1098 0.9920
vn 0.1097 -0.9927 0.0510
vn 0.6633 0.4089 0.6268
vn -0.7745 0.2503 0.5809
vn -0.1779 0.0872 -0.9802
vn 0.8308 -0.4072 -0.3793
vn 0.3782 0.2608 0.8882
vn -0.2508 -0.9529 0.1704
s off
f 2/1/1 3/2/1 1/3/1
f 3/4/2 8/5/2 7/6/2
f 7/7/3 6/8/3 5/9/3
f 5/9/4 2/10/4 1/3/4
f 3/2/5 5/9/5 1/3/5
f 8/5/6 2/10/6 6/11/6
f 9/12/7 12/13/7 11/14/7
f 12/15/8 15/16/8 11/17/8
f 15/16/9 14/18/9 13/19/9
f 13/19/10 10/20/10 9/21/10
f 15/16/11 9/21/11 11/17/11
f 16/22/12 10/23/12 14/18/12
f 2/1/13 4/24/13 3/2/13
f 3/4/14 4/25/14 8/5/14
f 7/7/15 8/26/15 6/8/15
f 5/9/16 6/11/16 2/10/16
f 3/2/17 7/7/17 5/9/17
f 8/5/18 4/25/18 2/10/18
f 9/12/19 10/23/19 12/13/19
f 12/15/20 16/27/20 15/16/20
f 15/16/21 16/22/21 14/18/21
f 13/19/22 14/28/22 10/20/22
f 15/16/23 13/19/23 9/21/23
f 16/22/6 12/13/6 10/23/6
